<svg width="24" height="16" viewBox="0 0 24 16" fill="none" xmlns="http://www.w3.org/2000/svg">
<g clip-path="url(#clip0_46_144)">
<path d="M20.4292 2.43839C20.4292 1.26969 19.3701 0.313477 18.0755 0.313477H14.5449V2.43839H18.0755V5.2539L13.9801 9.87556H9.8376V4.56329H5.13022C2.5294 4.56329 0.422852 6.46509 0.422852 8.81311V12.0005H2.77654C2.77654 13.7642 4.35351 15.1879 6.30707 15.1879C8.26063 15.1879 9.8376 13.7642 9.8376 12.0005H15.1098L20.4292 5.99762V2.43839ZM6.30707 13.0629C5.6598 13.0629 5.13022 12.5848 5.13022 12.0005H7.48392C7.48392 12.5848 6.95434 13.0629 6.30707 13.0629Z" fill="#495E57"/>
<path d="M9.83783 1.37573H3.95361V3.50062H9.83783V1.37573Z" fill="#495E57"/>
<path d="M20.4295 8.81299C18.4759 8.81299 16.8989 10.2367 16.8989 12.0003C16.8989 13.764 18.4759 15.1877 20.4295 15.1877C22.3831 15.1877 23.96 13.764 23.96 12.0003C23.96 10.2367 22.3831 8.81299 20.4295 8.81299ZM20.4295 13.0628C19.7822 13.0628 19.2526 12.5847 19.2526 12.0003C19.2526 11.416 19.7822 10.9379 20.4295 10.9379C21.0768 10.9379 21.6063 11.416 21.6063 12.0003C21.6063 12.5847 21.0768 13.0628 20.4295 13.0628Z" fill="#495E57"/>
</g>
<defs>
<clipPath id="clip0_46_144">
<rect width="24" height="15.5294" fill="white"/>
</clipPath>
</defs>
</svg>
